<?xml version="1.0" encoding="UTF-8"?>
<svg version="1.1" xmlns="http://www.w3.org/2000/svg" width="512" height="512">
<path d="M0 0 C1.01790619 0.00215515 2.03581238 0.0043103 3.08456421 0.00653076 C17.69363523 0.05620146 32.02575853 0.30709809 46.375 3.3125 C47.34985352 3.51117676 48.32470703 3.70985352 49.32910156 3.91455078 C97.7109774 14.03517194 141.69928269 35.9516877 177.375 70.3125 C178.3640332 71.26068604 178.3640332 71.26068604 179.37304688 72.22802734 C188.86130305 81.37247479 197.6012044 90.66984009 205.375 101.3125 C206.23306152 102.46355017 207.09113451 103.61459177 207.94921875 104.765625 C213.98736829 112.95680614 219.34595521 121.47054105 224.375 130.3125 C224.73948242 130.94430176 225.10396484 131.57610352 225.47949219 132.22705078 C247.08534998 169.97532572 256.85198095 212.74189997 256.6875 255.9375 C256.68534485 256.95540619 256.6831897 257.97331238 256.68096924 259.02206421 C256.63129854 273.63113523 256.38040191 287.96325853 253.375 302.3125 C253.07698486 303.77478027 253.07698486 303.77478027 252.77294922 305.26660156 C242.65232806 353.6484774 220.7358123 397.63678269 186.375 433.3125 C185.74287598 433.97185547 185.11075195 434.63121094 184.45947266 435.31054688 C175.31502521 444.79880305 166.01765991 453.5387044 155.375 461.3125 C154.22394983 462.17056152 153.07290823 463.02863451 151.921875 463.88671875 C143.73224019 469.92427396 135.22961724 475.30707302 126.375 480.3125 C125.66778809 480.7146875 124.96057617 481.116875 124.23193359 481.53125 C101.09654164 494.5566741 75.92537591 503.30551461 49.9375 508.625 C49.21860596 508.77235596 48.49971191 508.91971191 47.7590332 509.0715332 C33.08339502 511.86090125 18.55831162 512.66142619 3.64770508 512.62817383 C0.70811513 512.6250221 -2.2304558 512.64854926 -5.16992188 512.67382812 C-18.54306192 512.71848737 -31.43916711 511.51301542 -44.625 509.3125 C-46.33055054 509.03031616 -46.33055054 509.03031616 -48.07055664 508.74243164 C-91.33802759 500.97044532 -132.38793216 480.98345309 -165.625 452.3125 C-166.37007813 451.67828125 -167.11515625 451.0440625 -167.8828125 450.390625 C-181.38779833 438.57948485 -194.05918743 425.82889772 -204.625 411.3125 C-205.48149066 410.16255169 -206.33826433 409.01281411 -207.1953125 407.86328125 C-213.23534209 399.67315742 -218.61867614 391.16870382 -223.625 382.3125 C-224.0271875 381.60528809 -224.429375 380.89807617 -224.84375 380.16943359 C-237.8691741 357.03404164 -246.61801461 331.86287591 -251.9375 305.875 C-252.08485596 305.15610596 -252.23221191 304.43721191 -252.3840332 303.6965332 C-255.35789088 288.05024391 -255.99800362 272.57681954 -255.9375 256.6875 C-255.93534485 255.66959381 -255.9331897 254.65168762 -255.93096924 253.60293579 C-255.88129854 238.99386477 -255.63040191 224.66174147 -252.625 210.3125 C-252.42632324 209.33764648 -252.22764648 208.36279297 -252.02294922 207.35839844 C-241.90232806 158.9765226 -219.9858123 114.98821731 -185.625 79.3125 C-184.99287598 78.65314453 -184.36075195 77.99378906 -183.70947266 77.31445312 C-174.56502521 67.82619695 -165.26765991 59.0862956 -154.625 51.3125 C-153.47394983 50.45443848 -152.32290823 49.59636549 -151.171875 48.73828125 C-142.98224019 42.70072604 -134.47961724 37.31792698 -125.625 32.3125 C-124.91778809 31.9103125 -124.21057617 31.508125 -123.48193359 31.09375 C-100.34654164 18.0683259 -75.17537591 9.31948539 -49.1875 4 C-48.46860596 3.85264404 -47.74971191 3.70528809 -47.0090332 3.5534668 C-31.36274391 0.57960912 -15.88931954 -0.06050362 0 0 Z " fill="#FF4141" transform="translate(255.625,-0.3125)"/>
<path d="M0 0 C4.17385904 3.48015324 7.97738238 7.29184126 11.79614258 11.14916992 C12.94117202 12.2874117 14.08725966 13.4245898 15.23431396 14.56079102 C18.32625433 17.63006841 21.40232618 20.71479252 24.47498536 23.80335784 C27.70421942 27.04531847 30.94571281 30.27498549 34.18522644 33.50666809 C39.62168239 38.93404711 45.0475562 44.37183788 50.4675293 49.81567383 C56.71916903 56.09452083 62.98861672 62.35515299 69.26761705 68.60662955 C74.67413581 73.99040252 80.07078001 79.38392811 85.45940512 84.78561097 C88.67083447 88.00480474 91.88547327 91.22059828 95.10907936 94.42760277 C98.14029895 97.44429721 101.15887117 100.47311832 104.16842651 103.5114212 C105.26982109 104.61938371 106.37541206 105.72319424 107.48563194 106.82231331 C114.43024396 113.70390121 120.64985113 120.39221258 122.6640625 130.25 C122.54636935 138.53559787 120.7273702 144.78783325 115.16796875 151.0703125 C109.50564641 156.40875447 103.89050553 159.02678951 96.125 159.5 C79.91340018 158.88029053 67.31190195 141.45322036 56.6796875 130.77734375 C55.326565 129.42235189 53.97321838 128.06758382 52.61965942 126.71302795 C49.08956685 123.17915097 45.56248994 119.64227947 42.03607178 116.10473633 C38.42433206 112.48269396 34.80969418 108.86354628 31.1953125 105.24414062 C24.12739834 98.1655612 17.0626725 91.08380904 10 84 C9.99853344 85.11852765 9.99706688 86.2370553 9.99555588 87.38947773 C9.9589375 114.62380299 9.89945712 141.8580055 9.81609726 169.09222889 C9.77631237 182.26257846 9.74391702 195.43286833 9.72900391 208.60327148 C9.71598462 220.08451925 9.68901264 231.56563561 9.64538693 243.04680938 C9.62277863 249.12426576 9.60708896 255.20156011 9.60811615 261.27906227 C9.60886311 267.00415824 9.59089707 272.72889609 9.55883217 278.45389938 C9.55034202 280.55042448 9.54857719 282.64698979 9.55419731 284.74352455 C9.58215395 296.7794753 9.48115772 306.88286715 2.875 317.375 C-4.45717334 324.06959305 -11.46917044 325.9187528 -21.37109375 325.5390625 C-27.98968874 324.55589123 -32.50595535 321.87413914 -36.87109375 316.84375 C-42.10735545 309.51047222 -43.29895048 302.64728838 -43.2784729 293.84413147 C-43.2842653 292.94385253 -43.2900577 292.04357359 -43.29602563 291.11601347 C-43.31297746 288.11124114 -43.315898 285.10662286 -43.31884766 282.10180664 C-43.32814915 279.94316229 -43.33831815 277.78452152 -43.34928894 275.62588501 C-43.37657799 269.77318801 -43.39173518 263.92051507 -43.40471697 258.0677712 C-43.42035223 251.94850866 -43.44714122 245.82929522 -43.4727478 239.71006775 C-43.51952852 228.12575643 -43.5562761 216.54143588 -43.58942068 204.9570784 C-43.62764701 191.76729384 -43.67705586 178.57755858 -43.72740483 165.38781559 C-43.8307142 138.25858028 -43.91997789 111.12931329 -44 84 C-44.84445175 84.8533342 -45.6889035 85.7066684 -46.5589447 86.58586121 C-54.5364204 94.64458661 -62.52456092 102.69260517 -70.523139 110.73038769 C-74.63449285 114.86257478 -78.74205965 118.99838211 -82.84106445 123.14282227 C-86.80038761 127.14575399 -90.76953368 131.13870283 -94.74554634 135.12505531 C-96.25723366 136.64410699 -97.76540874 138.16666262 -99.26991081 139.69283104 C-101.38537842 141.8375307 -103.51323804 143.96918558 -105.64428711 146.09838867 C-106.25713058 146.72561325 -106.86997406 147.35283783 -107.50138855 147.99906921 C-113.77066981 154.21021284 -121.04346739 159.03759734 -130.0625 159.375 C-137.27864264 159.27967447 -142.67752306 156.93454178 -148.07421875 152.16796875 C-154.38934961 145.45565985 -156.25669727 139.17389849 -156.59375 130.1015625 C-154.57652597 119.56422119 -147.28265287 112.56658419 -139.94262695 105.31152344 C-138.81422923 104.17797802 -137.68690349 103.04336463 -136.56056213 101.90777588 C-133.51804438 98.84684344 -130.46015098 95.80172708 -127.39857125 92.7598753 C-124.18433686 89.56211296 -120.98280672 86.35167241 -117.77934265 83.14312744 C-112.39885482 77.75812787 -107.00829682 72.38337273 -101.61157227 67.01464844 C-95.3888478 60.82396331 -89.18230176 54.61741406 -82.98421127 48.40207267 C-77.00113083 42.40307993 -71.00674561 36.41550626 -65.00719261 30.43299103 C-62.46350273 27.89614044 -59.92376326 25.3554319 -57.38720131 22.81145477 C-54.3946212 19.81116388 -51.39219776 16.82107017 -48.38217735 13.83827972 C-47.28477383 12.74771137 -46.19067142 11.65380852 -45.10031128 10.55619812 C-31.40454961 -3.22004755 -18.13380101 -11.57696492 0 0 Z " fill="#FFFDFD" transform="translate(273,96)"/>
</svg>
